<?xml version="1.0" encoding="utf-8"?>
<!-- Generator: Adobe Illustrator 24.1.0, SVG Export Plug-In . SVG Version: 6.00 Build 0)  -->
<svg version="1.1" id="Capa_1" xmlns="http://www.w3.org/2000/svg" xmlns:xlink="http://www.w3.org/1999/xlink" x="0px" y="0px"
	 viewBox="0 0 512 512" style="enable-background:new 0 0 512 512;" xml:space="preserve">
<style type="text/css">
	.st0{fill:#FFFFFF;}
</style>
<g>
	<path class="st0" d="M493.1,168.4L343.6,18.9c-17.1-17.1-44.9-17.1-61.9,0l-188,188H49.9c-24.6,0-43.8,19.2-43.8,43.8v211.4
		c0,24.6,19.2,43.8,43.8,43.8h337.5c24.6,0,43.8-19.2,43.8-43.8V293.4l63-63C510.2,213.3,510.2,185.5,493.1,168.4L493.1,168.4z
		 M300.9,39.2c3.2-3.2,6.4-4.3,10.7-4.3s7.5,1.1,10.7,4.3l76.9,76.9l-89.7,89.7H134.3L300.9,39.2z M400.2,462.1c0,8.5-6.4,15-15,15
		H47.8c-8.5,0-15-6.4-15-15V250.7c0-8.5,6.4-15,15-15h337.5c8.5,0,15,6.4,15,15V462.1z M391.7,206.9c-2.1,0-4.3,0-6.4,0h-34.2
		l69.4-69.4l20.3,20.3L391.7,206.9z M471.8,210.1l-41.6,41.6v-1.1c0-10.7-4.3-21.4-10.7-28.8l42.7-42.7l10.7,10.7
		C477.1,195.1,477.1,203.7,471.8,210.1L471.8,210.1z"/>
	<path class="st0" d="M62.7,403.4h54.5v28.8H62.7V403.4z"/>
	<path class="st0" d="M147.1,403.4h54.5v28.8h-54.5V403.4z"/>
	<path class="st0" d="M232.5,403.4H287v28.8h-54.5V403.4z"/>
	<path class="st0" d="M316.9,403.4h54.5v28.8h-54.5V403.4z"/>
	<path class="st0" d="M162.1,280.6H62.7v87.6h99.3V280.6z M133.2,339.3H92.6v-29.9h40.6V339.3z"/>
</g>
</svg>
