<?xml version="1.0" encoding="utf-8"?>
<!-- Generator: Adobe Illustrator 24.1.0, SVG Export Plug-In . SVG Version: 6.00 Build 0)  -->
<svg version="1.1" id="Capa_1" xmlns="http://www.w3.org/2000/svg" xmlns:xlink="http://www.w3.org/1999/xlink" x="0px" y="0px"
	 viewBox="0 0 512 512" style="enable-background:new 0 0 512 512;" xml:space="preserve">
<style type="text/css">
	.st0{fill:#FFFFFF;}
</style>
<g>
	<g>
		<path class="st0" d="M462,74H50C22.4,74,0,96.4,0,124v264c0,27.6,22.4,50,50,50h155c5.5,0,10-4.5,10-10s-4.5-10-10-10H50
			c-16.5,0-30-13.5-30-30V266h217.3c1.6,8.1,6.4,15.3,13.6,19.8c2.3,1.5,4.8,2.6,7.4,3.4l-17.6,30.3c-2,3.5-1.8,7.9,0.7,11.1
			s6.6,4.6,10.5,3.6l23.9-6.4l6.4,24c1,3.9,4.3,6.8,8.4,7.3c0.4,0.1,0.9,0.1,1.3,0.1c3.5,0,6.9-1.9,8.7-5l45.6-79l57.1,101.6
			c1.8,3.2,5.1,5.1,8.7,5.1c0.4,0,0.8,0,1.3-0.1c4-0.5,7.4-3.4,8.4-7.3l6.4-24l23.9,6.4c3.9,1,8-0.4,10.5-3.5
			c2.5-3.2,2.8-7.5,0.8-11.1l-29.4-51.8c0.9,0.1,1.9,0.1,2.8,0.1c5.7,0,11.3-1.6,16.3-4.8c7.2-4.5,12-11.7,13.6-19.8H492v122
			c0,16.5-13.5,30-30,30H362v-54c0-5.5-4.5-10-10-10s-10,4.5-10,10v54h-52c-5.5,0-10,4.5-10,10s4.5,10,10,10h172
			c27.6,0,50-22.4,50-50V124C512,96.4,489.6,74,462,74z M261.6,268.9c-3.1-2-4.9-5.2-4.9-8.9v-70l0,0c0-3.7,1.8-6.9,4.9-8.9
			s6.8-2.2,10.1-0.6l49.1,23.1c-1.2,3.3-1.9,6.8-1.9,10.5v21.4c0,3.8,0.7,7.5,2,10.8l-49.2,23.2
			C268.5,271.1,264.8,270.9,261.6,268.9z M295.4,323.2l-2.8-10.3c-0.7-2.6-2.4-4.8-4.7-6.1c-2.3-1.3-5-1.7-7.6-1l-10.2,2.7
			l12.9-22.3l46.1-21.7L295.4,323.2z M280.3,162.3c-9.5-4.5-20.5-3.8-29.4,1.8s-14.2,15.3-14.2,25.8v56H20V124c0-16.5,13.5-30,30-30
			h292v85.7c0,1.7,0.4,3.2,1.1,4.6c-3.2,0.7-6.2,1.9-9,3.5L280.3,162.3z M354.6,246h-5.1c-5.8,0-10.5-4.7-10.5-10.5v-21.4
			c0-5.8,4.7-10.5,10.5-10.5h5.1c5.8,0,10.5,4.7,10.5,10.5v21.4C365.2,241.3,360.5,246,354.6,246z M434.2,331.3l-10.5-2.8
			c-2.6-0.7-5.3-0.3-7.6,1c-2.3,1.3-4,3.5-4.7,6.1l-2.7,9.9l-45.4-80.7c2.2-0.7,4.3-1.5,6.3-2.7l34.5,16.3L434.2,331.3z
			 M442.4,268.9c-3.1,2-6.8,2.2-10.1,0.6l-49.1-23.1c1.3-3.4,2-7.1,2-10.9v-21.4c0-3.7-0.7-7.3-1.9-10.6l48.9-23.1
			c3.3-1.6,7-1.3,10.1,0.6c3.1,2,4.9,5.2,4.9,8.9V260l0,0C447.2,263.7,445.5,266.9,442.4,268.9z M492,246h-24.8v-56
			c0-10.5-5.3-20.2-14.2-25.8c-8.9-5.6-19.9-6.3-29.4-1.8l-53.7,25.4c-2.8-1.6-5.8-2.8-9-3.5c0.7-1.4,1.1-2.9,1.1-4.6V94h100
			c16.5,0,30,13.5,30,30V246L492,246z"/>
	</g>
</g>
<g>
	<g>
		<path class="st0" d="M253.8,420.9c-1.9-1.9-4.4-2.9-7.1-2.9s-5.2,1.1-7.1,2.9s-2.9,4.4-2.9,7.1s1.1,5.2,2.9,7.1
			c1.9,1.9,4.4,2.9,7.1,2.9s5.2-1.1,7.1-2.9c1.9-1.9,2.9-4.4,2.9-7.1S255.7,422.8,253.8,420.9z"/>
	</g>
</g>
<g>
	<g>
		<path class="st0" d="M211.5,128H64c-5.5,0-10,4.5-10,10s4.5,10,10,10h147.5c5.5,0,10-4.5,10-10S217,128,211.5,128z"/>
	</g>
</g>
<g>
	<g>
		<path class="st0" d="M211.5,354H64c-5.5,0-10,4.5-10,10s4.5,10,10,10h147.5c5.5,0,10-4.5,10-10S217,354,211.5,354z"/>
	</g>
</g>
<g>
	<g>
		<path class="st0" d="M126,182H64c-5.5,0-10,4.5-10,10s4.5,10,10,10h62c5.5,0,10-4.5,10-10S131.5,182,126,182z"/>
	</g>
</g>
<g>
	<g>
		<path class="st0" d="M171.8,184.9c-1.9-1.9-4.4-2.9-7.1-2.9c-2.6,0-5.2,1.1-7.1,2.9s-2.9,4.4-2.9,7.1s1.1,5.2,2.9,7.1
			s4.4,2.9,7.1,2.9c2.6,0,5.2-1.1,7.1-2.9s2.9-4.4,2.9-7.1S173.6,186.8,171.8,184.9z"/>
	</g>
</g>
</svg>
