<?xml version="1.0" encoding="utf-8"?>
<!-- Generator: Adobe Illustrator 24.1.0, SVG Export Plug-In . SVG Version: 6.00 Build 0)  -->
<svg version="1.1" id="Layer_1" xmlns="http://www.w3.org/2000/svg" xmlns:xlink="http://www.w3.org/1999/xlink" x="0px" y="0px"
	 viewBox="0 0 512 512" style="enable-background:new 0 0 512 512;" xml:space="preserve">
<style type="text/css">
	.st0{fill:#FFFFFF;}
</style>
<g>
	<path class="st0" d="M426,496H86c-25.4,0-46-20.6-46-46V208c0-8.8,7.2-16,16-16s16,7.2,16,16v242c0,7.7,6.3,14,14,14h340
		c7.7,0,14-6.3,14-14V208c0-8.8,7.2-16,16-16s16,7.2,16,16v242C472,475.3,451.4,496,426,496z"/>
	<path class="st0" d="M496,264c-4.1,0-8.2-1.6-11.3-4.7l-199-199c-16.4-16.4-43-16.4-59.4,0l-199,199c-6.2,6.2-16.4,6.2-22.6,0
		c-6.2-6.2-6.2-16.4,0-22.6l199-199c28.9-28.9,75.8-28.9,104.7,0l199,199c6.2,6.2,6.2,16.4,0,22.6C504.2,262.4,500.1,264,496,264
		L496,264z"/>
	<path class="st0" d="M320,496H192c-8.8,0-16-7.2-16-16V338c0-27.6,22.4-50,50-50h60c27.6,0,50,22.4,50,50v142
		C336,488.8,328.8,496,320,496z M208,464h96V338c0-9.9-8.1-18-18-18h-60c-9.9,0-18,8.1-18,18V464z"/>
</g>
</svg>
