<?xml version="1.0" encoding="utf-8"?>
<!-- Generator: Adobe Illustrator 24.1.0, SVG Export Plug-In . SVG Version: 6.00 Build 0)  -->
<svg version="1.1" id="Layer_1" xmlns="http://www.w3.org/2000/svg" xmlns:xlink="http://www.w3.org/1999/xlink" x="0px" y="0px"
	 viewBox="0 0 191 66" style="enable-background:new 0 0 191 66;" xml:space="preserve">
<style type="text/css">
	.st0{fill:#9DF4BC;}
</style>
<path class="st0" d="M158,64.5H33C15.6,64.5,1.5,50.4,1.5,33v0C1.5,15.6,15.6,1.5,33,1.5h125c17.4,0,31.5,14.1,31.5,31.5v0
	C189.5,50.4,175.4,64.5,158,64.5z"/>
<g>
	<path d="M77.6,45.1c-2.6,0-4.6-0.6-6-1.8c-1.4-1.2-2.2-2.9-2.3-5h4.6c0.1,0.9,0.4,1.6,1,2.2s1.5,0.9,2.8,0.9c1.1,0,2-0.2,2.6-0.6
		c0.6-0.4,0.9-0.9,0.9-1.6c0-0.3-0.1-0.6-0.3-0.8s-0.4-0.4-0.6-0.6s-0.6-0.3-1-0.5c-0.5-0.1-0.8-0.3-1.1-0.3
		c-0.3-0.1-0.7-0.2-1.4-0.3c-0.6-0.2-1.1-0.3-1.4-0.4c-0.3-0.1-0.8-0.2-1.4-0.4c-0.6-0.2-1.1-0.4-1.4-0.6c-0.3-0.2-0.7-0.5-1.2-0.8
		c-0.4-0.3-0.8-0.7-1-1.1s-0.4-0.9-0.6-1.4c-0.2-0.6-0.3-1.2-0.3-1.9c0-1.8,0.7-3.3,2.1-4.5c1.4-1.2,3.3-1.8,5.7-1.8
		c2.4,0,4.4,0.6,5.7,1.8c1.4,1.2,2.2,2.9,2.3,4.9h-4.7c-0.1-2-1.3-3-3.5-3c-0.9,0-1.7,0.2-2.2,0.6c-0.6,0.4-0.8,0.9-0.8,1.5
		c0,0.3,0.1,0.6,0.3,0.9c0.2,0.3,0.4,0.5,0.6,0.6c0.2,0.2,0.6,0.3,1,0.5s0.8,0.3,1.2,0.4c0.3,0.1,0.8,0.2,1.4,0.3
		c0.7,0.2,1.2,0.3,1.5,0.3c0.3,0.1,0.8,0.2,1.4,0.4c0.6,0.2,1.1,0.4,1.4,0.6s0.7,0.4,1.2,0.8s0.8,0.7,1,1c0.2,0.4,0.4,0.8,0.6,1.3
		c0.2,0.5,0.3,1.1,0.3,1.8c0,1.9-0.7,3.5-2.2,4.7C82.3,44.5,80.2,45.1,77.6,45.1z"/>
	<path d="M96.2,39h-3.8v5.7h-4.7V24.1h8.9c2.3,0,4,0.7,5.4,2.1s2,3.1,2,5.2c0,2.2-0.7,4-2.1,5.4C100.4,38.2,98.6,39,96.2,39z
		 M95.9,28.4h-3.5v6.3h3.7c1,0,1.8-0.3,2.3-0.9c0.6-0.6,0.9-1.4,0.9-2.3c0-1-0.3-1.7-0.9-2.3C97.8,28.7,97,28.4,95.9,28.4z"/>
	<path d="M117,44.7l-1.2-3.5h-8.1l-1.2,3.5h-4.8l7.3-20.6h5.7l7.2,20.6H117z M114.5,37l-2.7-8l-2.7,8H114.5z"/>
	<path d="M132.2,28c-1.7,0-3.2,0.6-4.4,1.8c-1.2,1.2-1.8,2.7-1.8,4.5c0,1.8,0.6,3.3,1.8,4.6c1.2,1.2,2.7,1.8,4.5,1.8
		c2.4,0,4.3-1.1,5.6-3.3l3.6,2.5c-2.1,3.4-5.2,5.2-9.2,5.2c-3.2,0-5.8-1-7.9-3.1c-2.1-2.1-3.2-4.6-3.2-7.6c0-3,1-5.5,3.2-7.6
		c2.1-2,4.7-3.1,7.8-3.1c4.2,0,7.3,1.7,9.2,5.1l-3.7,2.5C136.5,29.2,134.6,28,132.2,28z"/>
	<path d="M143.4,44.7V24.1h15v4.2h-10.4v3.9h9.6v4.1h-9.6v4.2h10.4v4.2H143.4z"/>
</g>
<polygon points="48.4,30.5 59.3,19.2 59.5,18.9 59.5,48.1 55.7,44.2 55.7,28.4 51.2,33.2 "/>
<polygon points="33.5,18.9 53.9,40.3 46.5,48.1 39.1,40.3 41.7,37.5 46.5,42.4 48.4,40.3 37.1,28.4 37.1,44.2 33.5,47.8 "/>
</svg>
