<?xml version="1.0" encoding="utf-8"?>
<!-- Generator: Adobe Illustrator 24.1.0, SVG Export Plug-In . SVG Version: 6.00 Build 0)  -->
<svg version="1.1" id="Capa_1" xmlns="http://www.w3.org/2000/svg" xmlns:xlink="http://www.w3.org/1999/xlink" x="0px" y="0px"
	 viewBox="0 0 512 512" style="enable-background:new 0 0 512 512;" xml:space="preserve">
<style type="text/css">
	.st0{fill:#FFFFFF;}
</style>
<g>
	<g>
		<path class="st0" d="M485.6,115.1c-18.4-13.7-44.4-10-58.1,8.4l-96.4,138.1L194.9,159.1c-18.3-13.7-44.3-10.1-58,8.2
			c0,0.1-0.1,0.1-0.1,0.2L18.2,337.7C4.4,355.9,8,381.9,26.2,395.8c7,5.3,15.4,8.3,24.2,8.4v1c12.7-0.4,24.5-6.5,32.1-16.7
			l96.4-138.1L315,352.8c18.3,13.7,44.3,10.1,58-8.2c0-0.1,0.1-0.1,0.1-0.2l120.8-171.2C507.6,154.9,503.9,128.9,485.6,115.1z"/>
	</g>
</g>
</svg>
