<?xml version="1.0" encoding="utf-8"?>
<!-- Generator: Adobe Illustrator 24.1.0, SVG Export Plug-In . SVG Version: 6.00 Build 0)  -->
<svg version="1.1" id="Capa_1" xmlns="http://www.w3.org/2000/svg" xmlns:xlink="http://www.w3.org/1999/xlink" x="0px" y="0px"
	 viewBox="0 0 512 512" style="enable-background:new 0 0 512 512;" xml:space="preserve">
<style type="text/css">
	.st0{fill:#FFFFFF;}
</style>
<g>
	<g>
		<g>
			<path class="st0" d="M395.1,9H117C57.1,9,9.1,57.7,9.1,116.9v278c0,60,48.7,107.9,107.9,107.9h278c60,0,107.9-48.7,107.9-107.9
				v-278C503,57.7,454.3,9,395.1,9z M472.3,395.7c0,42.7-34.5,77.2-77.2,77.2H117c-42.7,0-77.2-34.5-77.2-77.2v-278
				c0-42.7,34.5-77.2,77.2-77.2h278c42.7,0,77.2,34.5,77.2,77.2V395.7z"/>
			<path class="st0" d="M162.7,116.9H132c-8.2,0-15.7,6.7-15.7,15.7v30.7c0,8.2,6.7,15.7,15.7,15.7h30.7c8.2,0,15.7-6.7,15.7-15.7
				v-30.7C178.5,124.4,171.7,116.9,162.7,116.9z"/>
			<path class="st0" d="M162.7,225.6H132c-8.2,0-15.7,6.7-15.7,15.7v30.7c0,8.2,6.7,15.7,15.7,15.7h30.7c8.2,0,15.7-6.7,15.7-15.7
				v-30.7C178.5,232.3,171.7,225.6,162.7,225.6z"/>
			<path class="st0" d="M162.7,333.5H132c-8.2,0-15.7,6.7-15.7,15.7V380c0,8.2,6.7,15.7,15.7,15.7h30.7c8.2,0,15.7-6.7,15.7-15.7
				v-30.7C178.5,340.3,171.7,333.5,162.7,333.5z"/>
			<rect x="209.2" y="132.7" class="st0" width="185.9" height="30.7"/>
			<rect x="209.2" y="240.6" class="st0" width="185.9" height="30.7"/>
			<rect x="209.2" y="349.3" class="st0" width="185.9" height="30.7"/>
		</g>
	</g>
</g>
</svg>
