<?xml version="1.0" encoding="utf-8"?>
<!-- Generator: Adobe Illustrator 24.1.0, SVG Export Plug-In . SVG Version: 6.00 Build 0)  -->
<svg version="1.1" id="_x31__px" xmlns="http://www.w3.org/2000/svg" xmlns:xlink="http://www.w3.org/1999/xlink" x="0px" y="0px"
	 viewBox="0 0 512 512" style="enable-background:new 0 0 512 512;" xml:space="preserve">
<style type="text/css">
	.st0{fill:#FFFFFF;stroke:#FFFFFF;stroke-width:2;stroke-miterlimit:10;}
</style>
<g>
	<path class="st0" d="M235.1,507.9c-23.2,0-42.1-18.9-42.1-42.1s18.9-42.1,42.1-42.1c23.2,0,42.1,18.9,42.1,42.1
		C276.9,489,258.3,507.9,235.1,507.9z M235.1,444.9c-11.6,0-20.9,9.3-20.9,20.9s9.3,20.9,20.9,20.9c11.6,0,20.9-9.3,20.9-20.9
		S246.7,444.9,235.1,444.9z"/>
</g>
<g>
	<path class="st0" d="M381.9,507.9c-23.2,0-42.1-18.9-42.1-42.1s18.9-42.1,42.1-42.1c23.2,0,42.1,18.9,42.1,42.1
		S405.1,507.9,381.9,507.9z M381.9,444.9c-11.6,0-20.9,9.3-20.9,20.9s9.3,20.9,20.9,20.9c11.6,0,20.9-9.3,20.9-20.9
		S393.5,444.9,381.9,444.9z"/>
</g>
<g>
	<path class="st0" d="M203.6,193.1h-78.9c-5.6,0-10.6-4.6-10.6-10.6c0-6,4.6-10.6,10.6-10.6h78.9c5.6,0,10.6,4.6,10.6,10.6
		C214.2,188.5,209.3,193.1,203.6,193.1z"/>
</g>
<g>
	<path class="st0" d="M405.1,402.8H214.2c-23.5,0-44.1-15.6-50.4-38.1L97.3,131.8c-3.6-13.6-16.2-22.9-30.2-22.9H14.8
		c-5.6,0-10.6-4.6-10.6-10.6c0-6,4.6-10.6,10.6-10.6h52.4c23.5,0,44.1,15.6,50.4,38.1l66.6,232.9c3.6,13.6,16.2,22.9,30.2,22.9
		h190.9c13.3,0,25.2-8.3,29.5-20.9l19.2-52.4c2-5.3,8-8.3,13.6-6.3c5.3,2,8.3,8,6.3,13.6l-19.2,52.4
		C446.9,388.9,427,402.8,405.1,402.8L405.1,402.8z"/>
</g>
<g>
	<path class="st0" d="M381.9,298.1c-1.3,0-2.7-0.3-4-1c-5-2-121.9-52.7-121.9-155.7V53.6c0-4.6,3-8.6,7.3-9.9L378.6,4.6
		c2.3-0.7,4.6-0.7,6.6,0l115.3,39.1c4.3,1.3,7.3,5.3,7.3,9.9v87.8c0,103.1-117,153.8-121.9,155.7
		C384.6,297.8,383.2,298.1,381.9,298.1z M276.9,61.2v80.2c0,79.5,85.2,124.9,105,134.5c19.9-9.6,105-55.3,105-134.5V61.2l-105-35.5
		L276.9,61.2z"/>
</g>
<g>
	<path class="st0" d="M371.3,193.1c-0.3,0-0.3,0-0.7,0c-3-0.3-5.6-1.7-7.6-4l-41.8-52.4c-3.6-4.6-3-11.3,1.7-14.9
		c4.6-3.6,11.3-3,14.9,1.7l34.8,43.4l65.3-65.3c4-4,10.6-4,14.9,0c4,4,4,10.6,0,14.9l-73.6,73.6
		C376.9,192.1,374.3,193.1,371.3,193.1L371.3,193.1z"/>
</g>
</svg>
