<?xml version="1.0" encoding="utf-8"?>
<!-- Generator: Adobe Illustrator 24.1.0, SVG Export Plug-In . SVG Version: 6.00 Build 0)  -->
<svg version="1.1" id="Layer_1" xmlns="http://www.w3.org/2000/svg" xmlns:xlink="http://www.w3.org/1999/xlink" x="0px" y="0px"
	 viewBox="0 0 512 512" style="enable-background:new 0 0 512 512;" xml:space="preserve">
<style type="text/css">
	.st0{fill:#FFFFFF;}
</style>
<path class="st0" d="M481.1,267.3c-8.2-1-15.7,4.9-16.7,13.1c-12.3,103.3-100.3,181.2-204.6,181.2c-93.8,0-174.4-63-198.6-150.8
	l17.9,9.9c7.3,4,16.4,1.3,20.4-5.9c4-7.3,1.3-16.4-5.9-20.4l-46-25.3c-7.3-4-16.4-1.3-20.4,5.9L1.9,321c-4,7.3-1.4,16.4,5.9,20.4
	c7.5,3.5,16.1,1.8,20.4-5.9l5.9-10.7c29.7,97.5,120.5,166.8,225.8,166.8c119.5,0,220.3-89.3,234.4-207.6
	C495.2,275.8,489.3,268.3,481.1,267.3z"/>
<path class="st0" d="M502.9,148.1c-7.6-3.3-16.4,0.2-19.7,7.8l-4.7,11c-14.8-36.1-38.5-68.4-69-93.4C367.5,39,314.3,20,259.8,20
	S152.2,39,110.2,73.4c-41.5,34-70.3,81.4-81.3,133.5c-1.7,8.1,3.5,16.1,11.6,17.8c8.1,1.7,16.1-3.5,17.8-11.6
	c9.6-45.5,34.8-86.9,71-116.5C165.9,66.6,212.3,50,259.8,50c47.6,0,94,16.6,130.6,46.6c28.2,23.1,49.7,53.3,62.4,87.1l-19-8.2
	c-7.6-3.3-16.4,0.2-19.7,7.9c-3.3,7.6,0.2,16.4,7.9,19.7l48.2,20.8c8.2,3.4,16.2-0.1,19.7-7.8l20.8-48.2
	C514,160.2,510.5,151.4,502.9,148.1z"/>
<path class="st0" d="M352.3,145.5c4.3-8.7,5-18.5,1.9-27.7c-3.1-9.2-9.6-16.6-18.3-20.9c-17.9-8.9-39.7-1.5-48.6,16.4
	c-1.9,3.9-3.1,8.1-3.6,12.3c-11.6-1.1-23.4,0-34.8,3.3c-22.7,6.5-42,21.2-54.4,41.4l-40.5,66c-5.4-1-11-0.6-16.4,1.2
	c-8.4,2.8-15.1,8.7-19.1,16.6l-2.7,5.4c-8.1,16.3-1.4,36.2,14.9,44.3l87.7,43.4c-8.6,18-4.8,38.1,17.6,49.4
	c19.6,8.1,41.5,0.2,50-15.9l9.3,4.6c4.6,2.3,9.6,3.5,14.6,3.5c3.6,0,7.1-0.6,10.6-1.8c8.4-2.8,15.1-8.7,19.1-16.6l2.7-5.4
	c3.9-7.9,4.5-16.9,1.7-25.2c-1.8-5.4-4.9-10-8.9-13.8l28-72.2c8.5-22,8.5-46.3,0-68.4c-4.3-11.1-10.6-21.1-18.4-29.7
	C347.8,152.9,350.3,149.4,352.3,145.5z M319.7,123c3.5,0,6.3,2.8,6.3,6.3c0,3.5-2.8,6.3-6.3,6.3c-3.5,0-6.3-2.8-6.3-6.3
	C313.4,125.8,316.3,123,319.7,123z M255.4,370.1c-2,0.7-4.1,0.5-5.9-0.4c-1.9-0.9-3.3-2.5-3.9-4.5c-0.5-1.5-0.5-3.2-0.1-4.7
	l13.7,6.8C258.3,368.7,257,369.6,255.4,370.1z M335.2,243l-30.4,78.6c-4.3,9.7-0.2,21.2,9.4,26h0c1.6,0.8,2.1,2.6,1.4,4.1l-2.7,5.4
	c-0.9,1.6-2.5,2.1-4.1,1.4l-164.6-81.6c-1.5-0.7-2.1-2.6-1.4-4.1l2.7-5.4c0.7-1.3,2.1-2.3,4.1-1.4c4.8,2.4,10.2,2.7,15.3,1
	c4.8-1.6,8.7-4.9,11.1-9.3l44.1-71.8c8.4-13.7,21.6-23.8,37.1-28.2c15.5-4.5,32-3,46.5,4.2c0,0,0,0,0,0c0,0,0,0,0,0
	c14.5,7.2,25.6,19.4,31.5,34.4S341,227.9,335.2,243z"/>
</svg>
