<svg width="16" height="24" viewBox="0 0 16 24" fill="none" xmlns="http://www.w3.org/2000/svg">
<path d="M10.0429 12.9423C8.44341 12.9423 7.14209 14.2436 7.14209 15.8431C7.14209 16.6637 7.48515 17.4052 8.03466 17.9334C8.09982 17.996 8.16788 18.0557 8.23866 18.112C8.23879 18.1121 8.23892 18.1122 8.23906 18.1123C8.27418 18.1403 8.30989 18.1675 8.3463 18.1938C8.34702 18.1943 8.34773 18.1948 8.3484 18.1954C8.38419 18.2212 8.42056 18.2463 8.45756 18.2706C8.45917 18.2717 8.46086 18.2727 8.46247 18.2738C8.49857 18.2973 8.53517 18.3202 8.57239 18.3421C8.57529 18.3438 8.57824 18.3455 8.58114 18.3472C8.61724 18.3683 8.6537 18.3888 8.69079 18.4085C8.69516 18.4108 8.69967 18.413 8.70404 18.4152C8.73979 18.4339 8.77585 18.4521 8.81245 18.4693C8.81878 18.4722 8.82521 18.475 8.83155 18.4779C8.86654 18.4941 8.90179 18.5098 8.93754 18.5246C8.94598 18.5281 8.95454 18.5313 8.96302 18.5347C8.99703 18.5484 9.03117 18.5618 9.0658 18.5743C9.07656 18.5781 9.08754 18.5816 9.09834 18.5853C9.1311 18.5966 9.1639 18.6078 9.19719 18.6179C9.21053 18.622 9.22415 18.6255 9.23758 18.6294C9.26877 18.6384 9.29992 18.6475 9.33152 18.6555C9.34781 18.6596 9.36441 18.663 9.38084 18.6669C9.41002 18.6737 9.43917 18.6808 9.46866 18.6867C9.48826 18.6907 9.50816 18.6938 9.52793 18.6973C9.5548 18.7022 9.58153 18.7073 9.60862 18.7114C9.6321 18.715 9.65588 18.7175 9.67958 18.7205C9.70341 18.7235 9.72707 18.727 9.75103 18.7294C9.78022 18.7323 9.80976 18.7341 9.83917 18.7361C9.85809 18.7375 9.87688 18.7394 9.89589 18.7404C9.94458 18.7428 9.99359 18.7441 10.0429 18.7441C10.0921 18.7441 10.1411 18.7428 10.1898 18.7404C10.2089 18.7394 10.2276 18.7375 10.2465 18.7361C10.276 18.7341 10.3055 18.7323 10.3347 18.7294C10.3586 18.727 10.3823 18.7235 10.4061 18.7205C10.4298 18.7175 10.4536 18.715 10.4771 18.7114C10.5042 18.7073 10.5309 18.7022 10.5578 18.6973C10.5776 18.6938 10.5975 18.6907 10.617 18.6867C10.6465 18.6808 10.6757 18.6737 10.7049 18.6669C10.7213 18.6631 10.7379 18.6596 10.7542 18.6555C10.7858 18.6475 10.817 18.6384 10.8481 18.6294C10.8616 18.6255 10.8752 18.622 10.8885 18.6179C10.9218 18.6078 10.9546 18.5966 10.9874 18.5853C10.9982 18.5816 11.0092 18.5781 11.0199 18.5743C11.0545 18.5618 11.0887 18.5484 11.1227 18.5347C11.1312 18.5313 11.1397 18.5282 11.1482 18.5246C11.1839 18.5098 11.2191 18.4941 11.2542 18.4779C11.2605 18.475 11.2669 18.4723 11.2733 18.4693C11.3099 18.4521 11.3459 18.4339 11.3817 18.4152C11.3861 18.4129 11.3905 18.4107 11.3949 18.4085C11.432 18.3888 11.4685 18.3683 11.5046 18.3472C11.5075 18.3455 11.5104 18.3438 11.5133 18.3421C11.5505 18.3201 11.5871 18.2973 11.6232 18.2738C11.6249 18.2727 11.6265 18.2717 11.6282 18.2706C11.6651 18.2464 11.7015 18.2212 11.7373 18.1954C11.738 18.1949 11.7387 18.1944 11.7394 18.1938C11.7758 18.1675 11.8115 18.1403 11.8467 18.1123C11.8468 18.1123 11.8469 18.1122 11.8471 18.112C11.9178 18.0556 11.9858 17.996 12.0511 17.9334C12.6006 17.4052 12.9436 16.6637 12.9436 15.8431C12.9438 14.2436 11.6425 12.9423 10.0429 12.9423Z" fill="#3054EA"/>
<path d="M14.9506 0H0.669429C0.299725 0 0 0.299725 0 0.669428V19.6366C0 20.0063 0.299725 20.306 0.669429 20.306H6.69429V18.4492C6.11505 17.7106 5.80171 16.8048 5.80171 15.8431C5.80171 13.5054 7.70365 11.6034 10.0414 11.6034C12.3792 11.6034 14.2811 13.5054 14.2811 15.8431C14.2811 16.8048 13.9678 17.7106 13.3886 18.4492V20.306H14.9506C15.3203 20.306 15.62 20.0063 15.62 19.6366V0.669428C15.62 0.299725 15.3203 0 14.9506 0ZM3.34714 2.90086H6.02486C6.39456 2.90086 6.69429 3.20058 6.69429 3.57028C6.69429 3.93999 6.39456 4.23971 6.02486 4.23971H3.34714C2.97744 4.23971 2.67771 3.93999 2.67771 3.57028C2.67771 3.20058 2.97744 2.90086 3.34714 2.90086ZM12.2729 10.934H9.59514C9.22544 10.934 8.92571 10.6343 8.92571 10.2646C8.92571 9.89487 9.22544 9.59514 9.59514 9.59514H12.2729C12.6426 9.59514 12.9423 9.89487 12.9423 10.2646C12.9423 10.6343 12.6426 10.934 12.2729 10.934ZM12.2729 8.70257H3.34714C2.97744 8.70257 2.67771 8.40284 2.67771 8.03314C2.67771 7.66344 2.97744 7.36371 3.34714 7.36371H12.2729C12.6426 7.36371 12.9423 7.66344 12.9423 8.03314C12.9423 8.40284 12.6426 8.70257 12.2729 8.70257ZM12.2729 6.47114H3.34714C2.97744 6.47114 2.67771 6.17142 2.67771 5.80171C2.67771 5.43201 2.97744 5.13228 3.34714 5.13228H12.2729C12.6426 5.13228 12.9423 5.43201 12.9423 5.80171C12.9423 6.17142 12.6426 6.47114 12.2729 6.47114Z" fill="#3054EA"/>
<path d="M8.03467 19.5762V22.5374C8.03467 22.7843 8.17056 23.0112 8.38822 23.1277C8.60587 23.2441 8.87003 23.2315 9.07541 23.0945L10.043 22.4494L11.0105 23.0944C11.1225 23.1691 11.252 23.2069 11.3819 23.2069C11.4902 23.2069 11.5987 23.1806 11.6977 23.1277C11.9153 23.0112 12.0512 22.7844 12.0512 22.5374V19.5762C11.4531 19.8993 10.7691 20.0829 10.043 20.0829C9.3168 20.0829 8.63278 19.8993 8.03467 19.5762Z" fill="#3054EA"/>
</svg>
