<svg width="19" height="23" viewBox="0 0 19 23" fill="none" xmlns="http://www.w3.org/2000/svg">
<path d="M12.3499 7.60004H18.5629C18.2312 6.72117 17.716 5.92317 17.0515 5.25925L13.7417 1.94754C13.077 1.28381 12.2787 0.76889 11.3999 0.437042V6.65005C11.3999 7.17467 11.8252 7.60004 12.3499 7.60004Z" fill="#3054EA"/>
<path d="M18.9772 9.5H12.35C10.776 9.5 9.5 8.224 9.5 6.65V0.0228C9.34704 0.0123352 9.19411 0 9.03923 0H4.74998C2.12793 0.00316172 0.00311719 2.12797 0 4.75002V18.0501C0.00311719 20.6721 2.12793 22.7969 4.74998 22.8H14.25C16.872 22.7969 18.9968 20.6721 19 18.05V9.96076C19 9.80593 18.9877 9.65296 18.9772 9.5Z" fill="#3054EA"/>
</svg>
